<svg width="118" height="63" fill="none" xmlns="http://www.w3.org/2000/svg"><circle cx="113.272" cy="4.532" r="4" transform="rotate(90.27 113.272 4.532)" fill="#D9D9D9"/><circle cx="113.187" cy="22.532" r="4" transform="rotate(90.27 113.187 22.532)" fill="#D9D9D9"/><circle cx="113.102" cy="40.532" r="4" transform="rotate(90.27 113.102 40.532)" fill="#D9D9D9"/><circle cx="113.017" cy="58.532" r="4" transform="rotate(90.27 113.017 58.532)" fill="#D9D9D9"/><circle cx="94.272" cy="4.443" r="4" transform="rotate(90.27 94.272 4.443)" fill="#D9D9D9"/><circle cx="94.187" cy="22.443" r="4" transform="rotate(90.27 94.187 22.443)" fill="#D9D9D9"/><circle cx="94.102" cy="40.443" r="4" transform="rotate(90.27 94.102 40.443)" fill="#D9D9D9"/><circle cx="94.018" cy="58.442" r="4" transform="rotate(90.27 94.018 58.442)" fill="#D9D9D9"/><circle cx="76.272" cy="4.358" r="4" transform="rotate(90.27 76.272 4.358)" fill="#D9D9D9"/><circle cx="76.188" cy="22.358" r="4" transform="rotate(90.27 76.188 22.358)" fill="#D9D9D9"/><circle cx="76.103" cy="40.358" r="4" transform="rotate(90.27 76.103 40.358)" fill="#D9D9D9"/><circle cx="76.018" cy="58.358" r="4" transform="rotate(90.27 76.018 58.358)" fill="#D9D9D9"/><circle cx="58.273" cy="4.273" r="4" transform="rotate(90.27 58.273 4.273)" fill="#D9D9D9"/><circle cx="58.188" cy="22.273" r="4" transform="rotate(90.27 58.188 22.273)" fill="#D9D9D9"/><circle cx="58.103" cy="40.273" r="4" transform="rotate(90.27 58.103 40.273)" fill="#D9D9D9"/><circle cx="58.018" cy="58.273" r="4" transform="rotate(90.27 58.018 58.273)" fill="#D9D9D9"/><circle cx="40.273" cy="4.189" r="4" transform="rotate(90.27 40.273 4.189)" fill="#D9D9D9"/><circle cx="40.188" cy="22.188" r="4" transform="rotate(90.27 40.188 22.188)" fill="#D9D9D9"/><circle cx="40.103" cy="40.188" r="4" transform="rotate(90.27 40.103 40.188)" fill="#D9D9D9"/><circle cx="40.018" cy="58.188" r="4" transform="rotate(90.27 40.018 58.188)" fill="#D9D9D9"/><circle cx="22.273" cy="4.104" r="4" transform="rotate(90.27 22.273 4.104)" fill="#D9D9D9"/><circle cx="22.188" cy="22.103" r="4" transform="rotate(90.27 22.188 22.103)" fill="#D9D9D9"/><circle cx="22.103" cy="40.103" r="4" transform="rotate(90.27 22.103 40.103)" fill="#D9D9D9"/><circle cx="22.018" cy="58.103" r="4" transform="rotate(90.27 22.018 58.103)" fill="#D9D9D9"/><circle cx="4.273" cy="4.019" r="4" transform="rotate(90.27 4.273 4.019)" fill="#D9D9D9"/><circle cx="4.188" cy="22.019" r="4" transform="rotate(90.27 4.188 22.019)" fill="#D9D9D9"/><circle cx="4.104" cy="40.019" r="4" transform="rotate(90.27 4.104 40.019)" fill="#D9D9D9"/><circle cx="4.019" cy="58.018" r="4" transform="rotate(90.27 4.02 58.018)" fill="#D9D9D9"/></svg>