<svg width="1440" height="417" fill="none" xmlns="http://www.w3.org/2000/svg"><path d="M174.5 373C42.217 315.556-15.667 245.833-27 219v391.5H85.5c446 2.667 1338.4 6.4 1340 0 2-8-11.5-106.5-25.5-136.5-21.35-45.742-67.86-102.411-104.5-138-35-34-117.5-83-228-92.5-74.251-6.384-199.5 42.346-215 49.5-104 48-131 71.5-183.5 105-85.986 54.867-230 34-236.5 34s-94.5 12-258-59z" fill="#0A316C" stroke="#0A316C"/><path d="M21.235 166C-32.862 108.35-60.142 61.384-103.247 0l-8.747 82.538c-1.264 11.933 3.658 46.142 32.915 87.958C-49.823 212.312 20.78 282.345 82.234 314.5c56 29.302 124.102 52.337 203 58 104.5 7.5 205.5-7.5 227.5-15-7.423-1.122-51.235 3-159.735-9-32.184-3.56-120.727-23.5-180.765-60.5-45.881-28.275-82.5-49-151-122z" fill="#fff"/><path d="M663.512 330.626C467.347 424.669 272.726 412.85 161 371.738c5.492 4.454 100.193 42.448 152.916 62.181 65.903 24.667 130.777 23.126 166.303 27.237 35.525 4.111 154.975-7.195 193.59-25.181 40.409-18.822 112.756-62.181 194.621-119.738 81.864-57.556 167.33-62.181 225-59.611 77.77 3.465 144.16 36.143 172.99 56.528 4.64 4.625-18.69-23.109-67.96-46.251-17.51-8.221-87.53-48.82-196.16-45.736-113.839 3.231-143.686 15.926-338.788 109.459z" fill="#038BFF"/><path d="M1127.37 176c-66.11 0-120.06 17.118-144.37 28 26.5-6 71.63-4.374 144.37 6.733 54.3 8.291 129.45 43.074 172.63 77.767 54.82 44.046 69.31 62.566 112 113s57.21 29.966 57.21 29.966 10.86-5.182 14.48-6.737c6.72-2.886 17.91-13.81 25.34-16.063 7.42-2.253 6.72-22.784 0-33.666-.77-1.246-13-21.845-29.03-40.5-5.17-5.182-48.5-55.5-118-93.5-82-44.834-141.54-65-234.63-65z" fill="#fff" stroke="#fff"/><path d="m746 396.999-39.644 22.172H749.5l24-20.671L796 378l23-23 14-14-17 11.499-20 13-24 15.5-26 16zM151 430.5l122-8.5 28-2.5-56.5-20-31.5-12-25.5-11-47-20.5-59-30.5-37.5-23L5.5 273l-24-23-2.5 124.5L4.5 393 36 412.5 59.5 423l91.5 7.5z" fill="#0B4FA2" stroke="#0B4FA2"/></svg>